Results
version=1
nRows=19
nColumns=24
inDegrees=yes
endheader
time	pelvis_tilt	pelvis_list	pelvis_rotation	pelvis_tx	pelvis_ty	pelvis_tz	hip_flexion_r	hip_adduction_r	hip_rotation_r	knee_angle_r	ankle_angle_r	subtalar_angle_r	mtp_angle_r	hip_flexion_l	hip_adduction_l	hip_rotation_l	knee_angle_l	ankle_angle_l	subtalar_angle_l	mtp_angle_l	lumbar_extension	lumbar_bending	lumbar_rotation
      0.95850000	      3.07504440	     -2.30831607	     -2.43010775	     -0.36426613	      1.08599554	      0.30080851	      4.57470477	      7.88171610	     -4.39850203	    -12.27539383	     -1.22524771	     -6.78939174	      2.49190820	      9.67108113	     -2.99818602	     -0.30355502	    -60.70809142	     -4.56024088	     -7.96484530	      7.86822855	      0.60846624	      7.92642032	      1.90358588
      0.96266667	      3.10626735	     -2.30532989	     -2.56318252	     -0.35936722	      1.08662456	      0.30109572	      4.12123168	      7.87523794	     -4.34086592	    -12.03862555	     -1.14122270	     -6.69157171	      2.50781617	     10.13522055	     -2.92833488	     -0.09764063	    -60.39349501	     -4.08406195	     -8.47503395	      7.78567358	      0.52739229	      7.96055546	      2.06930191
      0.96683333	      3.11488821	     -2.31732175	     -2.67617021	     -0.35449115	      1.08719284	      0.30144527	      3.68184093	      7.89412843	     -4.24197064	    -11.76908041	     -1.06495995	     -6.57625418	      2.52393059	     10.61927796	     -2.88261144	      0.13618705	    -60.04537688	     -3.69597508	     -8.94863272	      7.69338599	      0.47854728	      7.97196495	      2.25222157
      0.97100000	      3.14091103	     -2.33267036	     -2.80602064	     -0.34975217	      1.08774017	      0.30182355	      3.23716715	      7.91784171	     -4.13338587	    -11.50757754	     -0.97202889	     -6.38378533	      2.55984431	     11.08292122	     -2.84472954	      0.35299616	    -59.65236341	     -3.44686853	     -9.54751350	      7.44645318	      0.32208632	      8.00145856	      2.63422369
      0.97516667	      3.13511382	     -2.32998617	     -2.90056250	     -0.34485794	      1.08825146	      0.30212985	      2.80093280	      7.91828676	     -3.99435405	    -11.21715100	     -0.93588981	     -6.33635132	      2.56464230	     11.55685806	     -2.77739455	      0.62726457	    -59.19621309	     -3.19977806	     -9.73774758	      7.41627335	      0.34023663	      7.99791994	      2.68203432
      0.97933333	      3.14798434	     -2.36839111	     -2.98764724	     -0.34003487	      1.08872933	      0.30262005	      2.34307183	      7.98639996	     -3.86103981	    -10.90214313	     -0.86947520	     -6.27663019	      2.57234311	     12.01125701	     -2.77850075	      0.85999337	    -58.73830358	     -2.72536195	    -10.19338124	      7.35801219	      0.36876530	      7.97931096	      2.78654875
      0.98350000	      3.12783085	     -2.35918457	     -3.15049635	     -0.33522526	      1.08915866	      0.30291749	      1.94933478	      7.96970751	     -3.77612300	    -10.66079729	     -0.79281398	     -6.23269381	      2.58360221	     12.47015715	     -2.70706126	      1.04455895	    -58.20613061	     -2.32578022	    -10.76911005	      7.24190237	      0.31280478	      8.01407869	      2.96015640
      0.98766667	      3.10911991	     -2.38454516	     -3.22584321	     -0.33043383	      1.08953196	      0.30332398	      1.52556276	      8.01550752	     -3.61417965	    -10.34702397	     -0.74383552	     -6.15341864	      2.59059304	     12.93691739	     -2.68570196	      1.31140167	    -57.64812215	     -2.09687112	    -11.10419859	      7.17157401	      0.32841021	      7.99449037	      3.07990048
      0.99183333	      3.08128735	     -2.37279734	     -3.39108139	     -0.32563935	      1.08989770	      0.30363036	      1.14033789	      7.99550903	     -3.51710264	    -10.10208146	     -0.66088999	     -6.10369076	      2.60116356	     13.37676813	     -2.61606458	      1.48751648	    -57.02448755	     -1.77353506	    -11.72522622	      7.02072915	      0.28985223	      8.02327721	      3.29797347
      0.99600000	      3.04044396	     -2.38278242	     -3.47661206	     -0.32089074	      1.09018074	      0.30389759	      0.75474018	      8.00741158	     -3.37967178	     -9.81984915	     -0.62828763	     -6.04822370	      2.60429179	     13.84053367	     -2.56374783	      1.77422629	    -56.37299956	     -1.63434480	    -11.90271916	      6.98295914	      0.26440327	      8.02952097	      3.35535849
      1.00016667	      3.03619327	     -2.41894738	     -3.54553315	     -0.31607573	      1.09047949	      0.30432880	      0.30692574	      8.06686710	     -3.22574906	     -9.48894938	     -0.55563905	     -5.98711707	      2.60925509	     14.24986549	     -2.56141248	      2.01087662	    -55.70215857	     -1.31097687	    -12.39343141	      6.90179791	      0.33739976	      8.01916647	      3.49425767
      1.00433333	      2.99202797	     -2.43001556	     -3.65916343	     -0.31129312	      1.09071202	      0.30464053	     -0.07528944	      8.08014216	     -3.09545934	     -9.20942166	     -0.48282965	     -5.94308995	      2.61378888	     14.67980079	     -2.52132389	      2.22967192	    -54.96844233	     -1.06744535	    -12.93119993	      6.79223109	      0.34538737	      8.03699419	      3.65543376
      1.00850000	      2.93893453	     -2.42682688	     -3.83358200	     -0.30654940	      1.09090431	      0.30488759	     -0.42376067	      8.06016813	     -3.00682837	     -8.97715691	     -0.39435132	     -5.90829371	      2.61985782	     15.09515910	     -2.46688840	      2.38998376	    -54.17512011	     -0.96351431	    -13.67412433	      6.55490167	      0.29775548	      8.08952919	      3.94085979
      1.01266667	      2.89000539	     -2.47163789	     -3.87989343	     -0.30179216	      1.09102027	      0.30520621	     -0.81491699	      8.12171729	     -2.86077710	     -8.65928539	     -0.35542971	     -5.83936019	      2.62256101	     15.52267884	     -2.46608147	      2.67505419	    -53.38464374	     -0.84504842	    -13.90067098	      6.47571845	      0.34233924	      8.11492069	      4.02895577
      1.01683333	      2.85092202	     -2.49790380	     -3.95998058	     -0.29698222	      1.09114199	      0.30546743	     -1.21236684	      8.14912716	     -2.74045879	     -8.36287474	     -0.28579167	     -5.80227488	      2.62452332	     15.90829080	     -2.44279660	      2.91713378	    -52.54147578	     -0.65042804	    -14.32439345	      6.36768854	      0.39657104	      8.14370307	      4.14443521
      1.02100000	      2.76879003	     -2.51122614	     -4.11202768	     -0.29223505	      1.09118101	      0.30569830	     -1.53041802	      8.14846717	     -2.66181369	     -8.13262546	     -0.18923936	     -5.78770671	      2.62529276	     16.31990404	     -2.41415631	      3.08561214	    -51.64428737	     -0.59674338	    -15.09297145	      6.09688457	      0.38260417	      8.20251936	      4.37625300
      1.02516667	      2.72274087	     -2.56934866	     -4.14469037	     -0.28747665	      1.09118763	      0.30595531	     -1.92509325	      8.21842839	     -2.53335219	     -7.81561703	     -0.15011882	     -5.71828501	      2.62624910	     16.70235871	     -2.42813471	      3.36856879	    -50.74234721	     -0.52756614	    -15.30899475	      5.99900424	      0.43542367	      8.25352562	      4.45169461
      1.02933333	      2.67347561	     -2.61330227	     -4.20458392	     -0.28267487	      1.09116929	      0.30616552	     -2.31125968	      8.26226163	     -2.42918892	     -7.51921344	     -0.07660179	     -5.68285737	      2.62589815	     17.06295659	     -2.42513978	      3.62112801	    -49.79601938	     -0.41029855	    -15.72489914	      5.86727143	      0.49760540	      8.30564743	      4.54859535
      1.03350000	      2.61771363	     -2.64086892	     -4.32744618	     -0.27791276	      1.09112957	      0.30634319	     -2.66383814	      8.27159618	     -2.38182452	     -7.28004831	      0.02132950	     -5.66923551	      2.62126007	     17.40471401	     -2.41166702	      3.80107157	    -48.78900341	     -0.46752004	    -16.49716923	      5.55151986	      0.45891158	      8.36620109	      4.73075720
